<svg width="174" height="174" fill="none" xmlns="http://www.w3.org/2000/svg"><path d="M17 91.11c3.772.943 7.715.97 11.5.08 6.17-1.5 10.86-4.49 11.85-4.49.99 0 9.32 20.83 9.49 21.66.17.83 6 16 5.16 17.17-.84 1.17-1.66 2.5-3.16 2.16-1.5-.34-10.84-1.33-14 .84s-6.84 4.33-7.5 6.83l-8.67-15A41.45 41.45 0 0 1 17 91.11z" fill="#F5F4FE"/><path d="M135.66 108.34c5.904 0 10.69-4.786 10.69-10.69s-4.786-10.69-10.69-10.69-10.69 4.786-10.69 10.69 4.786 10.69 10.69 10.69z" fill="#FFB81E"/><path d="M40.39 86.7c9.17-5.34 28.13-26.19 34.83-29.7 3.92-2.09 17.55-5.86 28.67-10.59 8.1-3.44 13.47-7.46 17.42-8.87a3.218 3.218 0 0 1 3.08.29c3.14 3.44-4.51 10.78-4.51 10.78l22.93-11.11c1.3-.61 3.55-1.6 3.91-.21a4.63 4.63 0 0 1 .326 2.196 4.637 4.637 0 0 1-.736 2.094c-2 3.54-8.56 7.3-13.17 10.67a11.46 11.46 0 0 0-3.5 3.83 63.303 63.303 0 0 0 9.92-1.67c7.9-1.94 17.13-6.14 17-4-.75 12.17-12.32 13.25-18 14-3.86.55-15.19 2.25-15.19 2.25s.56 1.13 5.73 4.8 16 12.55 16 12.55-4.43 4.28-11.59 1.86c-3.72-1.25-15.46-8.33-15.46-8.33h-13.74l-8.75 4.08s-7.67 5-7.21 7.42c.75 4 5.6 12.57 12.37 13.25.5 0 22.11 1.58 26.44 2.75 4.33 1.17 6 5.15 4.9 5.58-8.8 3.38-20 3.68-25.19 3.6a19.724 19.724 0 0 0-7.23 1.32c-20.92 9.83-26.29 8.85-31.58 8.33-13.75-1.33-13.17.84-13.17.84L49.22 107l-8.83-20.3z" fill="#fff"/><path d="M149.21 90.18c1.09-1 2.5-2.14 3.59-3.32m-2.8 7.21l3.16-.8m-2.98 4.64c.76.25 2.45.87 4.73 1.81m-19.66-8.82l.17 3.13m2.68 1.12c-1.38-1-4.34-1.29-5.73.87a3.473 3.473 0 0 0 .94 4.5 4.878 4.878 0 0 0 4.84.32m-2.39.75c.1.83.11 1.69.21 2.52M16.53 91.74c6.8.292 13.598-.636 20.07-2.74 6.62-2.09 9.68-10.31 7.5-11.32-2.7-1.23-4.13 4.54-3.62 7.16a35.87 35.87 0 0 0 2.69 7.54c4.16 9.51 14 34 10.93 34.74-1.89.45-18.38-1.37-23.13 6.75M47.22 81.2c7.17-4.67 18.54-17.26 25.92-22.67 8.75-6.42 29-7.93 47-20.83a4.098 4.098 0 0 1 4.24.23 2.736 2.736 0 0 1 .79 2.79 17.518 17.518 0 0 1-2.2 3.93M100 56.78c-.59.2 28.88-10.88 41.29-18.54 2-1.21 4.23-2 5-1.29 2 1.88.46 5.39-3.2 8.79-2.15 2-11 6.47-12.42 9" stroke="#2B1B9E" stroke-width="1.5" stroke-linecap="round" stroke-linejoin="round"/><path d="M102.22 60.53c6.34-2.17 21.18-3.74 27.61-4.45a104.168 104.168 0 0 0 24.91-6.22c2.26-.86 2.13 1.14 2.07 1.84-.59 6.08-6 9.66-9.84 10.83-4.79 1.46-13.82 2.16-18.69 3.37m-24.64-.12c2.37 0 9.38-.73 13.36-.8 2.273-.055 4.5.656 6.32 2.02 2.91 2.2 7.5 5.69 10.82 8.26 3.63 2.79 7.23 5.45 10.47 7.47a1.164 1.164 0 0 1 .54 1.23 1.172 1.172 0 0 1-.55.81 14.23 14.23 0 0 1-9.13 1.39c-6.52-1.57-14.81-7.27-16.89-8.76a1.873 1.873 0 0 0-1.1-.35c-2.5 0-11.76 0-13.34.52-3.58 1.14-10 5.76-13.58 8.41A4.55 4.55 0 0 0 89 91.21c1.39 3.87 4.65 9.88 11.58 10.94 9 1.38 20 .14 27 2.61M57.72 123.7c7.17-1.47 10.1 1.39 17.34.33 16.37-2.41 24-10.51 30.79-9.75 4.67.52 23.42-1.25 26.37-4.38" stroke="#2B1B9E" stroke-width="1.5" stroke-linecap="round" stroke-linejoin="round"/><path d="M139.3 90.57a7.537 7.537 0 0 1 2.78 2.43 9 9 0 0 1 1.21 5.78" stroke="#2B1B9E" stroke-width="1.5" stroke-linecap="round" stroke-linejoin="round"/></svg>