<svg width="174" height="174" fill="none" xmlns="http://www.w3.org/2000/svg"><path d="M95.18 142.53h-75.5a1.92 1.92 0 0 1-1.92-1.92V55.78a1.92 1.92 0 0 1 1.92-1.92s6.13-.72 8 0c1.23.48 3.9 3.58 3.9 3.58A12.24 12.24 0 0 1 40 54c12.92 0 55.19-.11 55.19-.11a1.92 1.92 0 0 1 1.92 1.92v84.83a1.92 1.92 0 0 1-1.93 1.89z" fill="#EFF8FE"/><path d="M78.57 73.51c-1.43-1.82-3.55-2.24-5.85-2.44-1.62-.14-22-.19-24.46-.21a6.79 6.79 0 0 0-4.16 1.42c-4 3.71-16.71 16-16.71 16s7.29 7.45 12.25 11.72c.53-.78 2.1-2.35 3.63-4.08.12 8.3.13 17 .39 25.14a1.421 1.421 0 0 0 1.39 1.38c6.22.16 23.07-.11 28.73 0a1.429 1.429 0 0 0 1.44-1.4c.08-4.52 0-18.09.25-26.92 3.41 3.08 2.53 2.75 5.67 5.88 3.06-2.42 7.76-7.71 11.08-10.84C89 85.52 82 77.86 78.57 73.51z" fill="#fff"/><path d="M63.91 96.19c.79 1.46-2.79 14-5.84 11.6-2.24-1.72 3.78-9.78 7.6-5.55m-1.78-18c.33 1.37-1.56 4.3-3.08 6.58-1.52 2.28-5 7-3.3 7.58 1.38.47 5.3-4.25 6.4-2.21" stroke="#FFB81E" stroke-width="2" stroke-linecap="round" stroke-linejoin="round"/><path d="M50.68 96.53c3.5-4.46 6-8.15 10.33-12.13 1.63-1.5 2.61-1.26 2.88-.16" stroke="#FFB81E" stroke-width="2" stroke-linecap="round" stroke-linejoin="round"/><path d="M68.42 71.14L48 71a8.65 8.65 0 0 0-5.52 2.45L27.14 88.36s7.29 7.45 12.25 11.64c1.17-1.71 7.45-7.3 7.08-10a1.57 1.57 0 0 0-1.84-1.46A2.2 2.2 0 0 0 43.35 90a12.692 12.692 0 0 0-.35 4.64c.14 8.68.13 17.94.4 26.45a1.421 1.421 0 0 0 1.39 1.38c6.22.16 23.07-.11 28.73 0a1.422 1.422 0 0 0 1.379-.899c.072-.181.107-.376.101-.571.08-4.73 0-19.35.29-28.11.06-1.65-.79-5.47-2.83-4.31-1.28.73-.22 2.77.88 3.75 5.7 5.12 4 4.12 7.58 7.67C84 97.61 88.65 92.33 92 89.2c-3.18-3.6-10.26-11.26-13.65-15.6-1.43-1.83-3.63-2.17-5.93-2.36-1.62-.14-3.94-.07-4.26-.09-.43 2.26-1.84 6.49-7.77 6.46a7.378 7.378 0 0 1-5.75-2.36m-6.56 44.49h17.75m3.12 0h2.5" stroke="#2B1B9E" stroke-width="1.5" stroke-linecap="round" stroke-linejoin="round"/><path d="M86.51 135.74a5 5 0 1 0 0-10 5 5 0 0 0 0 10z" fill="#fff" stroke="#2B1B9E" stroke-width="1.5" stroke-linecap="round" stroke-linejoin="round"/><path d="M86.64 133.11v-4.62m2.31 2.31h-4.62" stroke="#2B1B9E" stroke-width="1.5" stroke-linecap="round" stroke-linejoin="round"/><path d="M126.93 104.77c21.412 0 38.77-17.358 38.77-38.77 0-21.412-17.358-38.77-38.77-38.77-21.412 0-38.77 17.358-38.77 38.77 0 21.412 17.358 38.77 38.77 38.77z" fill="#fff"/><path d="M160.13 65a4.59 4.59 0 0 0-.85-1c.317.382.537.835.64 1.32.21 1 .55 3.43-7.88 5.69a91.706 91.706 0 0 1-21.86 2c-7.67-.23-16.1-3.22-21.94-4.39-4.64-.92-7.59.06-7.61-.8-.02-.86-.06-1.61-.11-2.4 0 .79.1 1.59.11 2.4.08 3.5-2 6.22 1 7.73 3.45 1.77 10.24 2.09 14.72 2.19 24.56.55 39.77-2.62 42.11-3.63 6.54-2.85 1.81-8.9 1.67-9.11zm-40.21-18.09zm1.94-.11zm-2.86.4zm-1 3.8zm-18.38 7.6c-.05-.25-.09-.45-.13-.61.04.16.08.36.13.61zm.76 5.27c-.07-.74-.16-1.46-.24-2.12.08.66.17 1.38.24 2.12zm-.33-2.76c-.06-.41-.12-.8-.18-1.15.06.35.13.74.18 1.15zm23.75-13.06z" fill="#fff"/><path d="M99.05 53.7zm-.05.64zm1.32-3.01zm44.32 9.74c3.92.2 11.48 0 14.64 2.93-2.45-3.07-10.8-2.73-14.64-2.93zm-28.36-8.95zM108.36 57zm7.1-4.77zm-7.1 4.77zm6.3-4.54zm-4.47 3.71z" fill="#A195F9"/><path d="M108.24 68.61c5.84 1.17 14.27 4.16 21.94 4.39A91.71 91.71 0 0 0 152 71c8.43-2.26 8.09-4.66 7.88-5.69a3.073 3.073 0 0 0-.64-1.32c-3.16-2.88-10.72-2.73-14.64-2.93-9.39-.48-16.11-4.93-20.84-13a2.42 2.42 0 0 0-1-1 2.994 2.994 0 0 0-.9-.28h-.48a5.105 5.105 0 0 0-1.46.16 6.62 6.62 0 0 0-.89.29 2.728 2.728 0 0 0-1.4 1.06 1.82 1.82 0 0 0-.12.8c.072.657.237 1.3.49 1.91.27.7.54 1.23.54 1.23-.486-.083-.977-.13-1.47-.14a5.986 5.986 0 0 0-1.59.11 4.55 4.55 0 0 0-.8.23c-.395.15-.758.375-1.07.66-.62.59-1.34 1.37-2.14 2.08-.394.365-.815.7-1.26 1a5.25 5.25 0 0 1-1.83.79 3.342 3.342 0 0 1-1.47-.07c-2.74-.77-2.28-6.3-5.62-5.85h-.22c-.255.046-.501.13-.73.25a1.997 1.997 0 0 0-.69.63 3.47 3.47 0 0 0-.58 1.74c-.01.213-.01.427 0 .64v.75c.077.977.23 1.947.46 2.9 0 .16.08.36.13.61a47.47 47.47 0 0 1 .43 2.51l.09.64c.08.66.17 1.38.24 2.12.05.5.1 1 .14 1.54 0 .79.1 1.59.11 2.4.01.81 2.93-.08 7.57.84z" fill="#A195F9"/><path d="M161.46 66.64a5.775 5.775 0 0 1-.46 5.2c-3.27 4.59-18.54 5.46-26 5.79-9.14.4-31.72.37-34.29-2.82a4.369 4.369 0 0 1-.59-3.47 28.21 28.21 0 0 0 .48-7.18c-.34-2.67-.73-5.47-1.29-8.1-.33-1.56-.68-3.27.72-4.44a2.671 2.671 0 0 1 2.41-.54c3 .81 1.71 5.3 4.25 6.11a2.818 2.818 0 0 0 2.14-.38c2-1.07 3.39-3 5.36-4a7.151 7.151 0 0 1 8.81 1.72c.373.419.595.95.63 1.51 0 .51-.46 1.51-1.77.33a18.827 18.827 0 0 1-3.55-4.78 4.15 4.15 0 0 1-.76-2.63 3.05 3.05 0 0 1 2.76-2.21c3.54-.58 5.12 3.67 5.92 4.67A26.66 26.66 0 0 0 143.84 61c4.92.63 11.15.21 14.23 1.76a2.999 2.999 0 0 1 1.91 3c-.09 1.78-1.4 3.07-3.87 3.9-8.13 2.7-18.54 3.48-25.38 3.17A66.009 66.009 0 0 1 117 70.91c-4.5-1.07-8.8-3.55-13-2.64" stroke="#2B1B9E" stroke-width="1.5" stroke-linecap="round" stroke-linejoin="round"/><path d="M124.52 60a10.782 10.782 0 0 0 .15 4.62 2.138 2.138 0 0 1-.14 1.52 1.219 1.219 0 0 1-1.33.45 1.596 1.596 0 0 1-1-1 1.003 1.003 0 0 1-.05-.67c.06-.168.156-.322.28-.45a9.636 9.636 0 0 1 2.51-1.62 3.188 3.188 0 0 0 1.81-2.24.94.94 0 0 0-.06-.5 1.439 1.439 0 0 0-.57-.55 1.124 1.124 0 0 0-.896-.13 1.133 1.133 0 0 0-.704.57z" stroke="#2B1B9E" stroke-width="1.5" stroke-linecap="round" stroke-linejoin="round"/><path d="M136.08 87.08h-17.81a1.76 1.76 0 0 0-1.76 1.76v4.65c0 .972.788 1.76 1.76 1.76h17.81a1.76 1.76 0 0 0 1.76-1.76v-4.65a1.76 1.76 0 0 0-1.76-1.76z" fill="#F5F4FE"/><path d="M136.08 87.08h-17.81a1.76 1.76 0 0 0-1.76 1.76v4.65c0 .972.788 1.76 1.76 1.76h17.81a1.76 1.76 0 0 0 1.76-1.76v-4.65a1.76 1.76 0 0 0-1.76-1.76z" stroke="#2B1B9E" stroke-width="1.5" stroke-linecap="round" stroke-linejoin="round"/><path d="M48.1 136.37a2.13 2.13 0 1 0 0-4.26 2.13 2.13 0 0 0 0 4.26zm10 0a2.13 2.13 0 1 0 0-4.26 2.13 2.13 0 0 0 0 4.26zm10 0a2.13 2.13 0 1 0 0-4.26 2.13 2.13 0 0 0 0 4.26z" fill="#2B1B9E"/><path d="M90.6 79.58a38.78 38.78 0 1 1 36.33 25.19A37.52 37.52 0 0 1 102.17 96c-1.1-.93-10.1-10.61-6.85-12.36 2.05-1.11 2 3 1.94 4-.16 2.16-.21 11-.21 11v41.94a1.921 1.921 0 0 1-1.92 1.92H19.64a1.92 1.92 0 0 1-1.92-1.92v-84.8a1.92 1.92 0 0 1 1.92-1.92h6.86c5.57 0 7.48 9 4.06 9-2.1 0-2.89-9 14.61-9H89.7" stroke="#2B1B9E" stroke-width="1.5" stroke-linecap="round" stroke-linejoin="round"/></svg>