<svg width="174" height="174" fill="none" xmlns="http://www.w3.org/2000/svg"><path d="M160.87 40.4H14.76a2.34 2.34 0 0 0-2.34 2.34v94.99a2.34 2.34 0 0 0 2.34 2.34h146.11a2.34 2.34 0 0 0 2.34-2.34V42.74a2.34 2.34 0 0 0-2.34-2.34z" fill="#EFF8FE"/><path d="M146.53 50.4H28.88a3.34 3.34 0 0 0-3.34 3.34v71.99a3.34 3.34 0 0 0 3.34 3.34h117.65a3.34 3.34 0 0 0 3.34-3.34V53.74a3.34 3.34 0 0 0-3.34-3.34z" fill="#fff"/><path d="M85.49 68.49C86 65 88.43 61.31 93 61.59c4.57.28 6.15 1.61 7.17 7.48.58 3.33 1 6.67 1.16 9l6.74-.08-1.57-6.32s.94-15.31-13.12-15.21c-14.06.1-14 17.21-14 17.4l1.87 4.45 4.53-.06a54.945 54.945 0 0 1-.29-9.76z" fill="#A195F9"/><path d="M129.63 108.71H60.31V77.09a6.23 6.23 0 0 1 6.18-6.24l39.51-.38 15 .53c3.81 0 7.47 3.42 7.47 7.23l1.16 30.48z" fill="#A195F9"/><path d="M45.27 71.59v40a2.49 2.49 0 0 1-2.7 2.19h-4.5a2.492 2.492 0 0 1-2.71-2.19V69.5a2.5 2.5 0 0 1 2.71-2.2h4.54a2.669 2.669 0 0 1 2.66 2.7v1.59z" fill="#F5F4FE"/><path d="M163.71 140.06V126.3s-1.2 1.41-1.48.94c-2.13-3.59-4.82-9.16-5.72-10.32-3.83-4.91-7.24-7-7.8-6.93-1.78-5.36-9.05-9.33-9.05-9.33s-4.8-8.26-8-9.24c-3.2-.98-22.15-5.09-22.77-4.11l-2.5 2.06s-5.14-.9-6.39.53c0 0-14.65 12.19-13.8 14.47 1 2.64 6.39-.62 6.39-.62l8.66-6 8.89 2.63s4.51 5.41 4.42 5.76c-.09.35-2.18 5.72-4.24 6.52-1.29.5-7 1-11.57-.31a20.768 20.768 0 0 1-7.61-4.35c-1.34-1.16-5.27.63-5 1.16.27.53 4.76 6.27 6.15 8.06a8.73 8.73 0 0 0 1.13 1.06c1.71 1.41 3.53 1.5 15.07 4.15a34.177 34.177 0 0 1 9.84 4 32.54 32.54 0 0 0 4.8 2.06l3.76 2s-2.69 2.18-1.64 5.2l1.55 4.43 36.91-.06zM41.64 107.07h-1.82a1 1 0 0 0-1 1v1.82a1 1 0 0 0 1 1h1.82a1 1 0 0 0 1-1v-1.82a1 1 0 0 0-1-1z" fill="#fff"/><path d="M66.71 71.5c2.86-.13 9.21-.31 12.06-.45a1.31 1.31 0 0 0 1.43-1.29 14.74 14.74 0 0 1 3.8-9.2c5.32-6.12 14.52-4.38 17.87-1.74 2.91 2.29 3.87 5.84 4.17 9.54a2.784 2.784 0 0 0 .74 2.06c.433.268.931.41 1.44.41 3.39.28 8.07 0 11.47.14a10.84 10.84 0 0 1 5.31 1.25c1.92 1 2.57 3.17 3.27 5.23.7 2.06.43 8.17.66 11.22" stroke="#2B1B9E" stroke-width="1.5" stroke-linecap="round" stroke-linejoin="round"/><path d="M80.24 72.8c-.09 2.41 2.58 2.83 3.57 2.48a2.51 2.51 0 0 0 1.62-2.46 15.392 15.392 0 0 1 .35-5.56 7.73 7.73 0 0 1 3.66-4.74 8.15 8.15 0 0 1 6.84-.34c2.58 1.14 3.57 3.67 3.85 6.47.11 1.12.21 2.84.44 4.11a2.29 2.29 0 0 0 2.49 2 2.51 2.51 0 0 0 2.68-2.76m-18.13-1.15c4.08-.4 8.24 0 12.33-.38m-37.88.63h-2.99v2.99h2.99V71.1z" stroke="#2B1B9E" stroke-width="1.5" stroke-linecap="round" stroke-linejoin="round"/><path d="M62.06 107.54h-2.99v2.99h2.99v-2.99z" fill="#fff" stroke="#2B1B9E" stroke-width="1.5" stroke-linecap="round" stroke-linejoin="round"/><path d="M63.16 82.74s63.64-.16 65.58 0m-68.28-5.79v2.61m0 5.96v2.62m0 5.96v2.61m0 5.96v2.62m-15.19-33.7v40a2.49 2.49 0 0 1-2.7 2.19h-4.5a2.492 2.492 0 0 1-2.71-2.19V69.5a2.5 2.5 0 0 1 2.71-2.2h2.87" stroke="#2B1B9E" stroke-width="1.5" stroke-linecap="round" stroke-linejoin="round"/><path d="M40.48 104.93h-1.82a1 1 0 0 0-1 1v1.82a1 1 0 0 0 1 1h1.82a1 1 0 0 0 1-1v-1.82a1 1 0 0 0-1-1z" fill="#2B1B9E"/><path d="M79.63 108.8h-2.62m2.33-13.72c0 3.42-.22 8.8-.17 13.24l.09 8c0 1.59 0 3.19.13 4.78" stroke="#2B1B9E" stroke-width="1.5" stroke-linecap="round" stroke-linejoin="round"/><path d="M78.4 107.93v2h2v-2h-2z" fill="#2B1B9E" stroke="#2B1B9E" stroke-width="1.07" stroke-linecap="round" stroke-linejoin="round"/><path d="M79.97 108.97l1.57-.13m-8.23-.04H70.7m-3.89 0H64.2" stroke="#2B1B9E" stroke-width="1.5" stroke-linecap="round" stroke-linejoin="round"/><path d="M78.39 123.22h2v-2h-2v2zm0-28.12h2v-2h-2v2z" fill="#2B1B9E" stroke="#2B1B9E" stroke-width="1.5" stroke-linecap="round" stroke-linejoin="round"/><path d="M93.71 109.27c4.55-.56 27.79-4.38 35.73-5.68 1.13-.18 5-.74 4.64-3.48-.28-2.16-1.89-2.47-4.62-2.2-3.5.36-33.9 5.63-44.27 7.47l-3.88 2a1.003 1.003 0 0 0-.55 1.18l.06.26a1.064 1.064 0 0 0 .85.8l5 .9 7.04-1.25z" fill="#FFB41E"/><path d="M92.61 117.77c1.7 0 5-3.8 4.11-5.27-.89-1.47-6.12-5-7.37-4.87-1.25.13-3.79.18-3 1.74s6.26 8.4 6.26 8.4z" fill="#fff"/><path d="M86.25 104.79c-1-1.89 2.35-4.58 5.57-7.56 4.38-4 7-6.61 8.19-7.36a5.5 5.5 0 0 1 4.5-1c1.5.29 12.22 4.23 16 4.86" stroke="#2B1B9E" stroke-width="1.5" stroke-linecap="round" stroke-linejoin="round"/><path d="M114.18 106.37c0 .87-2.18 4.78-2.87 5.3-3.16 2.44-9.12 1.16-13.09.79-2.53-.24-4.93-3.78-8.21-4.83-.89-.28-3.41-.17-3.94 1.4-.2.58 1.83 3.24 3 4.6 2.82 3.29 3.39 4.68 7.35 6.47 2.35 1.06 11.37.07 18.6 5 3.14 2.15 9.55 4.49 10.16 2.65.5-1.5-1.92-2.13-3.25-1.37a43.246 43.246 0 0 1-15 3.1c-4.83 0-75.22-.44-77.22-.44s-4.17 0-4.17-3.83V84.34" stroke="#2B1B9E" stroke-width="1.5" stroke-linecap="round" stroke-linejoin="round"/><path d="M147.3 124.61c-9.91 9.89-14.85 7.5-14.85 7.5l-5.56-1.62c-4.2 2.68.88 9-.33 9.26-.621.108-1.25.165-1.88.17H14.19a2.144 2.144 0 0 1-2.022-1.309 2.144 2.144 0 0 1-.168-.831V41.85a2.15 2.15 0 0 1 2.15-2.15h147.42a2.138 2.138 0 0 1 2.14 2.15v83.23c0 .69-.67 4.06-2.41 1l-2.89-6c-3.79-7.48-8.87-9.83-8.87-9.83-3.44-1.2-3 2.83-2.09 3.74 1.31 1.37 2.59.86 2.93-.37.89-3.27-7.26-7.46-15.48-19.25a10.758 10.758 0 0 0-4.36-3.54 80.543 80.543 0 0 0-10.43-2.13c-4-.67-7.59-1.56-10.37-1.44-1.63.08-2.68 1.37-3.17 1.75" stroke="#2B1B9E" stroke-width="1.5" stroke-linecap="round" stroke-linejoin="round"/><path d="M91.92 104.14s5.72-2.81 9-6.22l7.27 1.9c.758.239 1.492.55 2.19.93m-2.72 6.78c.99.731 1.86 1.612 2.58 2.61m20.21-11.55a5.904 5.904 0 0 0 .6 3.65m-39.96 3.92l4.51-.45" stroke="#2B1B9E" stroke-width="1.5" stroke-linecap="round" stroke-linejoin="round"/><path d="M38.58 72.66l.53 4.83 1.38-2.15 2.33-.49-4.24-2.19z" fill="#2B1B9E" stroke="#2B1B9E" stroke-width="1.5" stroke-linecap="round" stroke-linejoin="round"/><path d="M42.35 81.71H38.4v3.95h3.95v-3.95zm.69 12.86h-4.2v-4.98" stroke="#2B1B9E" stroke-width="1.5" stroke-linecap="round" stroke-linejoin="round"/><path d="M37.77 90.93h4.49v4.68m56.15-9.93v1a1.76 1.76 0 0 1-1.76 1.76h-7.08a1.76 1.76 0 0 1-1.76-1.76v-3.76" stroke="#2B1B9E" stroke-width="1.5" stroke-linecap="round" stroke-linejoin="round"/></svg>