<svg fill="none" height="117" viewBox="0 0 150 117" width="150" xmlns="http://www.w3.org/2000/svg"><g stroke-linecap="round" stroke-miterlimit="10" stroke-width="9"><path d="m114.56 66.2561 12.881-12.9069c8.973-8.9902 8.973-23.5883 0-32.5785-8.972-8.9903-23.541-8.9903-32.513 0l-25.0958 25.4575c-10.8324 10.2719-6.6324 25.2719 8.1676 23.2719" stroke="#ec5658"/><path d="m127.486 20.7706c8.973 8.9903 8.973 23.5883 0 32.5786l-12.881 12.9068" stroke="#67b9f7"/><path d="m59.3502 88.0196-34.6454-34.7149c-8.9723-8.9903-8.9723-23.5883 0-32.5786s23.5411-8.9903 32.5134 0l10.6601 10.6815c5.2073 4.8641 18.1219 16.9924 18.1219 28.5924 0 8.7478-6.9153 10.9442-13.5 9.1144" stroke="#2b1b9a"/><path d="m24.749 53.3492 34.6454 34.7149c3.1981 3.2044 8.7946 8.9902 12.2148 12.4619" stroke="#a094f8"/><path d="m120.5 60.0001-42.8058 40.9259c-1.599 1.425-3.9975 1.38-5.5965-.044l-14.5245-14.5982" stroke="#f5b740"/></g></svg>