<svg width="152" height="137" fill="none" xmlns="http://www.w3.org/2000/svg"><g clip-path="url(#clip0)"><path d="M63.334 47.387c-.84-4.883-3.72-11.718-5.644-13.486l-.567.684c-.79.898-2.324 1.64-2.412-1.133a14.261 14.261 0 0 1 .362-3.281 25.323 25.323 0 0 1-3.907 7.812 4.014 4.014 0 0 1-2.197 1.455 1.368 1.368 0 0 1-1.464-.977c-1.65 3.643-4.883 8.535-7.93 10.44a3.672 3.672 0 0 1-2.93.722 2.383 2.383 0 0 1-1.308-1.123 21.052 21.052 0 0 1-4.404 5.322c-2.783 2.441-4.111.537-4.111.537a4.473 4.473 0 0 0-3.154 2.383 3.612 3.612 0 0 0 .234 2.773c.85 2.08 1.66 3.906 3.252 5.108 3.261 2.529 4.95.41 4.95.41 2.686.127 1.465 8.974 1.465 8.974a7.146 7.146 0 0 1-.527 2.168c-.8 1.27 4.277 9.453 9.863 10.185 3.545.469 10.556-1.377 10.283-2.93-.977-5.497 3.017-6.835 3.017-6.835l1.065-3.662c.761.195 4.218-2.93 5.927-6.64 1.71-3.711 1.201-12.725.137-18.906z" fill="#fff"/><path d="M61.49 18.11c-1.865-3.192-7.158-2.01-8.7-1.708a82.768 82.768 0 0 0-24.697 9.11c-2.334 1.31-7.53 4.747-10.459 10.108a18.926 18.926 0 0 0-2.314 7.93 7.988 7.988 0 0 0 3.056 6.933 5.546 5.546 0 0 0-2.695 6.523c.83 2.422 3.73 4.521 6.084 3.525 2.148-.908 1.953-3.78 1.953-3.78a4.473 4.473 0 0 1 3.154-2.382s1.328 1.953 4.111-.537a21.056 21.056 0 0 0 4.404-5.322c.287.514.753.903 1.309 1.094a3.672 3.672 0 0 0 2.93-.723c3.056-1.953 6.279-6.836 7.929-10.439a1.368 1.368 0 0 0 1.465.977 4.013 4.013 0 0 0 2.197-1.455 25.322 25.322 0 0 0 3.906-7.813 14.255 14.255 0 0 0-.38 3.3c.087 2.774 1.62 2.032 2.411 1.134 3.193-3.701 7.168-11.621 4.336-16.474z" fill="#67BAF8"/><path d="M142.844 22.358h-42.313v42.723h42.313V22.358z" fill="#EFF8FE"/><path d="M142.844 55.209l-.078 7.519c-27.343-1.299-33.446-19.53-27.714-40.038l7.617-.341h20.175v32.86z" fill="#fff"/><path d="M142.844 65.072h-42.313V22.349h42.313v42.723z" stroke="#2B1B9E" stroke-width="1.465" stroke-linecap="round" stroke-linejoin="round"/><path d="M126.808 22.358s-.722 21.24.196 21.386c2.431.313 15.751.371 15.751.371m-35.28 9.815c.244-.078 7.245-1.71 7.245-1.71l-1.054 7.247-6.191-5.537zm1.191-8.75l14.003 14.53" stroke="#2B1B9E" stroke-width="1.465" stroke-linecap="round" stroke-linejoin="round"/><path d="M109.322 44.003l-1.553-1.553-1.554 1.553 1.554 1.554 1.553-1.554zm15.701 16.602l-1.553-1.553-1.554 1.553 1.554 1.554 1.553-1.554zm-8.055-8.962l-1.554-1.554-1.554 1.554 1.554 1.554 1.554-1.554z" fill="#2B1B9E" stroke="#2B1B9E" stroke-width=".977" stroke-miterlimit="10"/><path d="M115.482 22.7s-.127.322-.312.918" stroke="#2B1B9E" stroke-width="1.465" stroke-linecap="round" stroke-linejoin="round"/><path d="M114.174 27.358c-2.149 9.766-3.652 31.777 25.136 35.058" stroke="#2B1B9E" stroke-width="1.465" stroke-linecap="round" stroke-linejoin="round" stroke-dasharray="1.93 3.87"/><path d="M141.242 62.601l.977.078" stroke="#2B1B9E" stroke-width="1.465" stroke-linecap="round" stroke-linejoin="round"/><path d="M8.308 130.792s-1.074-35.526 5.86-43.114C21.1 80.091 33.013 75.96 33.013 75.96s1.856 9.355 9.082 10.175c3.75.42 8.047-1.484 11.26-2.08 0 0-1.954-6.728 5.585-8.437 1.318-.302 10.088.498 15.234 5.645C81.733 88.8 85.6 99.358 85.6 99.358c-.43-5.225-.976-21.484-.976-21.484l5.048-.625 4.512-3.564c3.369 18.368 9.453 29.608 9.453 44.07 0 3.819-4.56 9.766-11.719 10.42-11.786.986-19.55-19.98-19.55-19.98l-.312 21.914-63.748.683z" fill="#F5F4FE"/><path d="M77.864 62.728l-5.918-7.265a2.305 2.305 0 0 0-1.865-.362c-2.412.752-9.96 2.471-14.1-4.208-3.526-5.703-2.354-14.6 5.292-17.48 7.646-2.881 15.068 1.338 16.044 9.765.577 4.951-2.93 9.023-2.93 9.023l4.883 6.338-1.406 4.19z" fill="#FFB41E"/><path d="M65.63 53.715c5.173 0 9.365-4.272 9.365-9.541 0-5.27-4.192-9.54-9.365-9.54-5.172 0-9.364 4.27-9.364 9.54s4.192 9.54 9.364 9.54z" fill="#EFF8FE"/><path d="M63.656 53.422a65.35 65.35 0 0 0-3.847-16.406M29.996 56.44c-3.906-3.906-6.084-1.084-6.348.557a7.148 7.148 0 0 0 1.319 4.707 9.677 9.677 0 0 0 2.51 2.93 4.414 4.414 0 0 0 3.671.8 8.661 8.661 0 0 1 1.533-.469c1.563-.166 7.88 5.303 14.892 7.715a13.828 13.828 0 0 0 8.233.556 10.889 10.889 0 0 0 6.493-5c1.475-2.607 1.7-5.741 1.68-8.74 0-1.132 0-2.255-.107-3.378M46.754 44.721a2.158 2.158 0 0 1 2.861-.771M28.777 95.559c-.4 9.394-.586 23.046-.547 32.45" stroke="#2B1B9E" stroke-width="1.465" stroke-linecap="round" stroke-linejoin="round"/><path d="M8.375 129.474c.166-6.836.205-13.955.371-20.849.098-4.238.518-10.039 1.758-14.091a21.357 21.357 0 0 1 5.39-8.79c4.219-4.403 9.766-6.132 15.527-8.475a3.378 3.378 0 0 0 2.041-2.373c.474-2.694.474-5.45 0-8.145" stroke="#2B1B9E" stroke-width="1.465" stroke-linecap="round" stroke-linejoin="round"/><path d="M59 48.431c-.909-1.562-1.417-4.062-.977-5.077a1.084 1.084 0 0 1 1.728-.371 4.414 4.414 0 0 1 1.24 2.197 6.446 6.446 0 0 1 .528 3.31 1.142 1.142 0 0 1-.733.713A1.474 1.474 0 0 1 59 48.431z" fill="#2B1B9E"/><path d="M55.874 38.1a11.61 11.61 0 0 1 8.72-5.507 11.22 11.22 0 0 1 11.719 6.991m.625 22.168c-1.504-1.612-3.809-5.01-5.303-6.602-.537-.566-1.406-.156-1.63-.068a10.899 10.899 0 0 1-8.35.303m15.243 6.367c-3.076-.137-3.906 1.298-3.906 1.953a2.15 2.15 0 0 0 .977 1.68 5.4 5.4 0 0 0 1.836.79" stroke="#2B1B9E" stroke-width="1.465" stroke-linecap="round" stroke-linejoin="round"/><path d="M35.68 81.097c3.437 7.47 11.454 5.322 18.759 2.685 1.162-.43 2.48-.058 2.363 1.104-.088.976-1.309 1.884-2.637.712a2.93 2.93 0 0 1-.703-1.22 6.779 6.779 0 0 1 7.295-8.789c3.961.5 7.754 1.907 11.084 4.111 9.14 5.947 14.745 22.978 16.913 27.528 2.353 4.883 1.26 6.065.371 5.948-3.262-.45-4.375-23.095-4.638-34.062-.06-2.607-2.696-6.337-3.448-5.986-.752.352-.83 2.803 1.582 4.824 2.998 2.5 10.547-1.474 11.016-3.545.517-2.236 0-9.228-2.813-11.493-.84-.674-1.22-1.953-2.1-2.637-.507-.361-1.396-.166-1.855-.586-.459-.42-.38-1.396-.722-1.797-.342-.4-1.211-.42-1.602-.976a2.11 2.11 0 0 0-1.748-1.162c-1.25-.069-2.353 1.357-3.066 2.373-1.143 1.611-2.53 6.777-2.686 7.997-.586 4.59 1.885 3.34 2.53 2.559 1.318-1.621 4.697-7.207 3.27-7.812-2.177-.87-3.749 5.312-3.114 8.076.732 3.232 4.023-3.301 5.088-5.078a14.58 14.58 0 0 0-2.471 5.976c-.108.645 0 1.592.566 1.836 1.631.674 3.399-5.508 3.399-5.508s-1.788 6.201.39 5.567c1.26-.372 1.201-3.623 1.797-2.93M65.776 36.85a5.028 5.028 0 0 1 5.069 2.46m1.101 1.436c.175.206.299.45.362.713" stroke="#2B1B9E" stroke-width="1.465" stroke-linecap="round" stroke-linejoin="round"/><path d="M95.16 78.763c1.788 10.35 6.836 23.231 8.428 33.827 1.416 9.218-3.965 14.101-10.869 15.37-15.487 2.832-27.967-34.745-22.88-35.301 3.848-.42 2.432 20.682 1.719 31.053 0 .742-.156 3.955.498 4.297M53.912 50.922l2.315 2.431c.207.192.375.42.498.674.273.684-.157 1.455 0 2.188m-7.023 3.251c1.553.889 6.836 1.592 9.365-.556" stroke="#2B1B9E" stroke-width="1.465" stroke-linecap="round" stroke-linejoin="round"/><path d="M49.361 51.049c-.8-1.182-1.308-3.106-1.025-3.906a.878.878 0 0 1 1.367-.352c.43.254.694.87 1.074 1.748.415.755.615 1.61.576 2.47a.975.975 0 0 1-.517.548 1.182 1.182 0 0 1-1.475-.508z" fill="#2B1B9E"/><path d="M18.365 50.483a5.361 5.361 0 0 0 3.437 10.048m8.77-6.875a15.996 15.996 0 0 0 7.05-13.818c0-1.26-.976-1.504-1.571-.683-1.153 1.513-1.631 4.18-1.436 6.552.137 1.524.615 3.447 2.08 3.906a3.672 3.672 0 0 0 2.93-.722c5.048-3.145 10.527-14.404 8.681-14.795-.684-.146-1.182 1.758-1.103 2.803.136 1.758.78 2.597 1.816 2.5a4.013 4.013 0 0 0 2.197-1.455 25.32 25.32 0 0 0 3.906-7.812 14.258 14.258 0 0 0-.38 3.32c.087 2.773 1.62 2.03 2.411 1.133 2.246-2.578 4.883-7.207 5.274-11.406" stroke="#2B1B9E" stroke-width="1.465" stroke-linecap="round" stroke-linejoin="round"/></g><defs><clipPath id="clip0"><path fill="#fff" d="M0 0H151.234V137H0z"/></clipPath></defs></svg>