<svg width="174" height="174" fill="none" xmlns="http://www.w3.org/2000/svg"><path d="M100.21 26.71H33.46a8.819 8.819 0 0 1-5.59-2l-7.94-6.52s-.1 2.51-.18 5.06c0 1.16-.26 2.48-.36 3.68a8.914 8.914 0 0 0-2.4-.22h-4.66a1.81 1.81 0 0 0-1.82 1.82v18.84a1.81 1.81 0 0 0 1.82 1.82h87.88a1.808 1.808 0 0 0 1.79-1.82V28.53a1.811 1.811 0 0 0-1.79-1.82z" fill="#fff"/><path d="M88.55 26.71h11.66a1.809 1.809 0 0 1 1.79 1.82v18.84a1.823 1.823 0 0 1-.527 1.286 1.81 1.81 0 0 1-1.283.534H12.33a1.809 1.809 0 0 1-1.82-1.82V28.53a1.81 1.81 0 0 1 1.82-1.82h4.66c6.06-.16 5.73 3.94 4.17 3.88-2.88-.12-1.51-4.31-1.41-7.34.08-2.55.18-5.06.18-5.06l7.94 6.52a8.819 8.819 0 0 0 5.59 2h46.09" stroke="#2B1B9E" stroke-width="1.5" stroke-linecap="round" stroke-linejoin="round"/><path d="M147.28 146v6.94l-14.42-11.84h-97.2a2.527 2.527 0 0 1-2.53-2.53v-78A2.53 2.53 0 0 1 35.66 58h122.2a2.53 2.53 0 0 1 2.53 2.53v78a2.527 2.527 0 0 1-2.53 2.53s-4 .12-7.59-.08c-2.52-.14-2.62-6-.14-5.79 2.09.17 1 3.79-.39 5.23a7.683 7.683 0 0 0-2.46 5.58z" fill="#EFF8FE"/><path d="M73.89 132.86s59.46-3.89 59.55-4c3.67-4.41-3-5.57 1-8.58 5.88-4.39 11.28-15 0-23.49-5.86-4.42 2.37-17.09-9.45-27.28-8.34-7.19-14.44-5-18.5-4.6a4.58 4.58 0 0 1-2.52-.5c-3.79-2-14-6.81-30.51 6.92-2.22 1.86-13.46 14.82-5.89 20.58 8.2 6.19-12.86 11.71-3.6 22.19 5.47 6.19-9.23 8.33-1.75 16.09 2.01 2.09 8.78 2.73 11.67 2.67z" fill="#67BAF8"/><path d="M142.74 138.12l-3-7c-.68-3.35-5.52-6-8.94-5.93l-4.94.19-13 .24c-.13.1-.52.34-1 .65a16.78 16.78 0 0 1-1.56 2.22c-.943.372-1.932.614-2.94.72 0 0-2.67 5.22-8.42 5.61a11.091 11.091 0 0 1-6.61-1.51 10.533 10.533 0 0 1-3.77-3.5 14.512 14.512 0 0 1-1.85-3.32l-16.39.64a9.13 9.13 0 0 0-6.94 3L60.52 133l-5.05 8.3 75.62-.25a5.671 5.671 0 0 1 3.39 1.12l9.24 6.9-.98-10.95z" fill="#F5F4FE"/><path d="M88.54 129.8a12.825 12.825 0 0 0 3.77 3.5 10.356 10.356 0 0 0 6.11 1.08c7.69-.79 8.63-5.32 8.63-5.32s3.1-1.78 4.79-2.8l.1-.15-1.8-1.87a22.568 22.568 0 0 1-.89-4.8l.46-14.18c-1 2.27-5.76 12.51-10.74 15.17a13.88 13.88 0 0 1-12.32-.19v6.13a.808.808 0 0 0 0 .11h.25a12.284 12.284 0 0 0 1.64 3.32z" fill="#fff"/><path d="M98.42 134.38c-2.1.273-4.232-.104-6.11-1.08a11.09 11.09 0 0 0 6.61 1.51c5.75-.39 8.42-5.61 8.42-5.61a11.244 11.244 0 0 0 2.94-.72c.579-.697 1.1-1.439 1.56-2.22-1.69 1-4.79 2.8-4.79 2.8s-.94 4.53-8.63 5.32zm-11.48-7.91h-.25a14.512 14.512 0 0 0 1.85 3.32 12.292 12.292 0 0 1-1.6-3.32z" fill="#FEE"/><path d="M115.46 94.59c-3.15-3-5.66 2.83-5.66 2.83s-3.94-1 .09-6.56c1.45-2-2.56-2-6-3.12-2.54-.82-2.15-2.12-.24-3.6s3-3 1.92-4.46c-.72-.93-7.67-2.68-7.67-2.68S94 87.71 78.5 93.18c.2-2.77-.57 19.6 5.72 24.39.52.39 3.27 2.66 3.83 3a11.004 11.004 0 0 0 10.92-.1c5-2.66 9.09-11.26 10.11-13.53.16-.35.24-.56.24-.56s3.58 1.65 5.09-.29c1.51-1.94 4.36-8.38 1.05-11.5z" fill="#fff"/><path d="M110.16 97.32c2.6-5.52 5.89-3.33 6.77-1.73a7.82 7.82 0 0 1 .34 5.34 10.603 10.603 0 0 1-1.52 3.95 5.419 5.419 0 0 1-3.74 2.27 3.657 3.657 0 0 1-2.06-.33" stroke="#2B1B9E" stroke-width="1.5" stroke-linecap="round" stroke-linejoin="round"/><path d="M86.29 100.13c-.36-1.59-.09-3.85.55-4.58a.999.999 0 0 1 1.6.19c.342.719.48 1.518.4 2.31a5.32 5.32 0 0 1-.42 2.87 1.105 1.105 0 0 1-.84.39 1.374 1.374 0 0 1-1.29-1.18zm12.71.25c-.35-1.59-.09-3.85.55-4.58a1 1 0 0 1 1.61.19c.343.719.481 1.518.4 2.31a5.31 5.31 0 0 1-.43 2.87 1.054 1.054 0 0 1-.84.39 1.384 1.384 0 0 1-1.29-1.18z" fill="#2B1B9E"/><path d="M92.69 100.06v4.06c0 .62.08 1.38.66 1.62.58.24 1.14 0 1.71.14m-5.15 5.63c2.49 3.45 7.7 3.29 10.35-3.35a18.879 18.879 0 0 1-11.12.86" stroke="#2B1B9E" stroke-width="1.5" stroke-linecap="round" stroke-linejoin="round"/><path d="M108.3 108.69c-1.45 6.16-6.78 12.92-13.27 13.28-6.87.37-11.81-4.19-14-9.13-2.41-5.44-1.79-14.67-3.75-21-.21-.66-1.79-2.3-3.37-1.73-1.58.57-1 2.3.57 2.7 6.31 1.58 24-11.31 23.94-17.82 0-2.08-1.75-4.29-3-3-1 1.09-.15 2.79.82 3.91 1.93 2.24 5 1.89 7.76 2.94 2.4.92 2.32 2.7.68 4.23-.85.8-4.15 3-1.64 4.36 2.24 1.21 6 .72 7 2.28" stroke="#2B1B9E" stroke-width="1.5" stroke-linecap="round" stroke-linejoin="round"/><path d="M98.59 92.39a2.92 2.92 0 0 1 3.69.38m-16.69-.22a2.8 2.8 0 0 1 3.62.21M110 107.05c-.17 1.51-.92 10.61-.29 15.25a6.244 6.244 0 0 0 2.44 3.88m-25.26-6.28c-.19 1.06.44 6.42-.77 6.71-1.21.29-12.29.25-16 .6-2.33.23-4.4.77-6 2.45-2.49 2.56-7.77 10.29-8.56 11.18M70.43 107a7.72 7.72 0 0 0-1.73 2.44 3.5 3.5 0 0 0 0 2.92c.71 1.33 2.42 1.93 3 3.32.7 1.66-.54 3.46-1.71 4.84" stroke="#2B1B9E" stroke-width="1.5" stroke-linecap="round" stroke-linejoin="round"/><path d="M33.13 83V60.56A2.529 2.529 0 0 1 35.66 58h122.2a2.53 2.53 0 0 1 2.53 2.53v78a2.527 2.527 0 0 1-2.53 2.53s-4 .12-7.59-.08c-2.52-.14-2.62-6-.14-5.79 2.09.17 1 3.79-.39 5.23a7.698 7.698 0 0 0-2.46 5.54v6.94l-12.13-10a8.236 8.236 0 0 0-5.25-1.88H35.66a2.525 2.525 0 0 1-2.53-2.53v-27" stroke="#2B1B9E" stroke-width="1.5" stroke-linecap="round" stroke-linejoin="round"/><path d="M35.89 40.68a2.67 2.67 0 1 0 0-5.34 2.67 2.67 0 0 0 0 5.34zm16.35 0a2.67 2.67 0 1 0 0-5.34 2.67 2.67 0 0 0 0 5.34zm16.35 0a2.67 2.67 0 1 0 0-5.34 2.67 2.67 0 0 0 0 5.34z" fill="#FFB41E"/><path d="M89.5 131.43a10.84 10.84 0 0 0 17-.93 4.609 4.609 0 0 0 .63-3.58c-.25-.81-1.1-1.54-1.89-1.22a1.358 1.358 0 0 0-.63 1.72 2.53 2.53 0 0 0 1.46 1.34 6.397 6.397 0 0 0 3.67.05c1.8-.58 2.31-3.23 4-3.2 6.32.09 11.75-.32 15.72-.19 2.64.08 6.81.54 9.25 3.78 1 1.38 3.06 6.52 4.17 9.54m-70.1-.63c.045.845.005 1.693-.12 2.53m51.81-3.36c.107 1.184.133 2.373.08 3.56M76.23 35.92a3.24 3.24 0 0 1 3.48-2.54A2.74 2.74 0 0 1 82 36.75c-.37 1.19-2.06 1.87-2.91 2.47a1.25 1.25 0 0 0-.67 1.06" stroke="#2B1B9E" stroke-width="1.5" stroke-linecap="round" stroke-linejoin="round"/><path d="M78.48 42.9a.6.6 0 1 0 0-1.2.6.6 0 0 0 0 1.2z" fill="#2B1B9E"/><path d="M126 95.55c.07 4.67 4.23 5.9 5.27 9.68 1.34 4.89-2.16 6.47-2.4 11.17m-6.41-13.28c.34 4.41 3.55 4.51 3.12 7.63-.3 2.13-2.74 3.26-2.93 5.65" stroke="#2B1B9E" stroke-width="1.5" stroke-linecap="round" stroke-linejoin="round"/></svg>