<svg width="174" height="174" fill="none" xmlns="http://www.w3.org/2000/svg"><path d="M110.949 53.24l-9.16.25.1-6.92 8.58-.21.48 6.88z" fill="#FFB41E"/><path d="M65.36 53c2.2-3.31 6.28-8.55 8.52-9.74 9.05-4.82 31.829-19.39 33.499-19.09 1.67.3 5 6.63-1.34 12.84-3.51 3.49-19.04 15.93-19.04 15.93l-.33 7.34s32.8-2 41.13 4.18c8.33 6.18 9.33 39.07 8.43 42.25-.9 3.18-9.39 10.6-16.36 14.84-6.97 4.24-32.68 7.31-40 7-19.08-.91-31.5 14.53-39.17 14.23-5.36-.21-9.42-14.13-12.83-26.65-2.39-8.81-5-16.76-5-16.76C54.81 90.45 52.53 72.34 65.36 53z" fill="#fff"/><path d="M112.001 49l-11.4.71a2.09 2.09 0 0 1-2.21-1.94l-.19-3.49c-.07-1.15 2.31-2.72 3.46-2.79l9.83-.65a2.079 2.079 0 0 1 2.2 1.95l.26 4a2.09 2.09 0 0 1-1.95 2.21z" fill="#FFB41E"/><path d="M107.15 122.66c18.993 0 34.39-15.513 34.39-34.65s-15.397-34.65-34.39-34.65c-18.993 0-34.39 15.513-34.39 34.65s15.397 34.65 34.39 34.65z" fill="#67BAF8"/><path d="M136.71 88.28c0 16.13-14 29.08-29.83 29.08-15.83 0-28.88-13.68-28.88-29.81a29 29 0 0 1 29-29c15.72-.02 29.71 13.6 29.71 29.73z" fill="#EFF8FE"/><path d="M127.061 99.92c-1.1.51-3.24 3.1-.5 4.82 2.74 1.72 11.22 4.11 14.29 3.71 3.07-.4 7.14-1.34 7.89-4.78.75-3.44-4.4-7.31-4.4-7.31l-3.53-1.69-1.07 4.25s-9.61-.4-12.68 1z" fill="#fff"/><path d="M141.49 86c-.16-.1-13.93 2.11-15.36 4.19-1.43 2.08-1.51 4.64 3.09 5.25 3.66.49 15.77.22 18.27-1.31 3.64-2.22 3.42-5.4 2.17-7.73-2.27-4.24-8.6-4.12-8.6-4.12l.43 3.72zm-6.591-18.58s-14.06 12.35-11.39 15.46c3 3.55 5 1.8 8.79.66 3.79-1.14 11.86-7 13.78-9.54 2.07-2.73 3.58-7-.27-10.34-4.35-3.79-11.81 1.51-11.81 1.51l.9 2.25zm-18.428-18.11c3.1-2.65 9.89-6.31 16.06-2.88 7.34 4.09.78 13.71-1.75 16.13-2.53 2.42-14 11.49-17.82 10.22-8.53-2.8 6.84-17 6.84-17l-6.89-2.5a49.858 49.858 0 0 1 3.56-3.97z" fill="#fff"/><path d="M86.29 60.69c.475-2.608.672-5.26.59-7.91 0 0 6.73-5.1 13.16-10.17 2.45-1.93 8-6.88 9.34-11 .75-2.33 1.1-8.65-2.92-7.33-5.8 1.9-18.75 11.33-27.46 16.12a46.081 46.081 0 0 0-13 11c-7 9-10.25 23.22-17.47 32.81-4.9 6.51-19.82 14.08-27.16 15.55-4.16.83-7-8-2.22-5.15 7.57 4.55 8.35 51.49 20.7 48.16m95.28-75.89a50.72 50.72 0 0 0-3.64-4.29" stroke="#2B1B9E" stroke-width="1.5" stroke-linecap="round" stroke-linejoin="round"/><path d="M136.791 66c-3.23 3.18-7.72 7.52-10.75 10.45-1.88 1.82-4.64 5.22-1.92 7.52 2.57 2.17 8.69-.07 13.78-3.33 4.54-2.9 12.36-8.2 9.85-14.14-1.46-3.44-5.91-6.34-12.42-2m5.368 21.56c-1.73-.07-8.15 1.16-11.88 2.47-2.17.77-3.77 2.14-3.64 3.71.19 2.31 2.43 3.47 4.62 3.68a69.487 69.487 0 0 0 16.38-.92c2.89-.7 6.41-4.42 3-9.39-1.23-1.82-3.84-3.13-7.57-3.54m.461 16.84c-3.9-.18-12-.36-14.09.45-2.36.91-3.88 3.12-2.27 5.08 2.12 2.57 13.39 4 15.14 4 6.29.15 11.89-5.76 4.09-11.36M78 69.55a35.61 35.61 0 0 1 30.21-16.23c4.78.09 7.9.6 8 2.43 0 1.61-1.93 2.31-3.1.68-1.17-1.63.45-4.82 2-6.13 9.59-7.89 15.9-4.57 17.36-3.72a7.509 7.509 0 0 1 3.53 6.21c-.06 4-3.52 8.42-6.46 11.14-2.94 2.72-9.07 7.31-13.53 9.16-2.92 1.21-6.53-.71-5.45-4.75 1.54-5.71 9.22-11.42 12.62-16.25m-24.01-2.88c5.09-.37 10.7-.59 13.23-.85a1.6 1.6 0 0 0 1.43-1.6V42.4m-2.889 10.77l-.22-4.2m23.868 60.41c-14 17-30.22 17.49-42.32 18.63-6.48.61-16.86.51-23.32 1.26-6.46.75-11.79 5.2-18.91 9.59" stroke="#2B1B9E" stroke-width="1.5" stroke-linecap="round" stroke-linejoin="round"/><path d="M128.81 108a29.406 29.406 0 0 1-28.683 8.522A29.41 29.41 0 1 1 116.1 59.94m20.031 22.28c.269 1.433.433 2.883.49 4.34M127 66.2a26.584 26.584 0 0 1 4.3 4.85m-24.78-9.6l.26 2.82m6.4 45.92l.72 2.58M81.21 91.12l2.12-.33" stroke="#2B1B9E" stroke-width="1.5" stroke-linecap="round" stroke-linejoin="round"/><path d="M93.3 92.82c.85 0 1.56-1 1.63-2.07.12-1.88-1.58-3.27-3.1-2-1.24 1.05-.83 4.17 1.47 4.07zm3.62-.63c0-1.17-.19-3.26-.12-4.54a34.716 34.716 0 0 0 3.291 3.53c.06-.05-.26-3.59-.37-4.42M104.92 85c.24 1.15.17 3.75.26 4.91m-2.119-4.54a29.083 29.083 0 0 1 3.76-1m1.74.01c0 1.25.06 3.41.13 4.57m2.419-.69c-.14-1.36-.2-3.35-.36-4.6.59.5 2 1.94 2 1.94s1.44-2.46 1.57-2.93c.08.91.09 3.4.25 4.69m4.809-1.09c-.6.17-2.65.67-2.65.67s-.26-4-.24-4.9c.56-.19 1.73-.46 2.3-.65m-1.85 3.04l1.68-.46m-28.388 13.1c5.13-1.91 31.619-7.27 33.409-8.14M89.67 85.3c8.2-2.63 30.29-7.43 32.51-8.14" stroke="#2B1B9E" stroke-width="1.5" stroke-linecap="round" stroke-linejoin="round"/></svg>